<?xml version="1.0" encoding="utf-8"?>
<!-- Generator: Adobe Illustrator 25.2.1, SVG Export Plug-In . SVG Version: 6.00 Build 0)  -->
<svg version="1.1" id="Layer_1" xmlns="http://www.w3.org/2000/svg" xmlns:xlink="http://www.w3.org/1999/xlink" x="0px" y="0px"
	 viewBox="0 0 688.4 300" style="enable-background:new 0 0 688.4 300;" xml:space="preserve">
<style type="text/css">
	.st0{fill:#146474;}
	.st1{fill:#FFFFFF;}
	.st2{fill:#14B8A6;}
	.st3{font-family:'NexaBold';}
	.st4{font-size:118.3034px;}
</style>
<g>
	<g>
		<g>
			<path class="st0" d="M59.1,189.8h91.8c0,0,2.1,20.7-12.9,23.1c-85.1,0-85.1,0-85.1,0S60.6,209.3,59.1,189.8z"/>
			<path class="st2" d="M21.7,192.1v0.6c0,0,0.4,19.4,14.2,21.4c4.1,0.6,7.6,0,10.4-1.6C38.5,207.7,28.8,200.7,21.7,192.1z"/>
		</g>
		<path class="st2" d="M134.1,78.5l-16.9,15.2l-15-14.6l-14.6,15L75.2,79.7L62,93.9L49.3,79.3L36.1,93.9L21.7,80.5v32.6
			c5.2-0.8,9.9-2.7,9.9-2.7s-2.4-4.1,1.3-7.4c3.7-3.3,9.9-1.2,13.4,4.1c3.5,5.4,7.8,4.7,7.8,4.7s-4.1-0.8-5.5-3.1
			c8.8-1.9,18.9,2.2,25.1,6c6.3,3.8,12.8,6.5,21.4,8.8c8.6,2.4,4.1,8.7,4.1,8.7s0,0-1.3,3.2c-2.2,5.3-3.7,6.5-24.9,10.6
			c-13.7,2.5-24.5,8.6-33,15.6c2.1,6,6.2,16.6,11.4,26.6c0.6,1.1,1,2.2,1.2,3.4c0.8,3.7,1.1,7.7,0.5,11.8c3.2-6.5,0.9-17.6,0.9-17.6
			h80V78.5z M75.8,113.6c-0.6,0-1.2-0.5-1.2-1.2c0-0.6,0.5-1.2,1.2-1.2H123c0.6,0,1.2,0.5,1.2,1.2c0,0.6-0.5,1.2-1.2,1.2H75.8z
			 M124.1,124.7c0,0.6-0.5,1.2-1.2,1.2h-18.5c-0.6,0-1.2-0.5-1.2-1.2c0-0.6,0.5-1.2,1.2-1.2H123
			C123.6,123.5,124.1,124.1,124.1,124.7z M100.6,135.8H123c0.6,0,1.2,0.5,1.2,1.2c0,0.6-0.5,1.2-1.2,1.2h-22.4
			c-0.6,0-1.2-0.5-1.2-1.2C99.5,136.3,100,135.8,100.6,135.8z M123.7,170.3H54.2c-0.6,0-1.2-0.5-1.2-1.2c0-0.6,0.5-1.2,1.2-1.2h69.5
			c0.6,0,1.2,0.5,1.2,1.2C124.9,169.7,124.3,170.3,123.7,170.3z M123.7,159.4H57.8c-0.6,0-1.2-0.5-1.2-1.2c0-0.6,0.5-1.2,1.2-1.2
			h65.9c0.6,0,1.2,0.5,1.2,1.2C124.9,158.9,124.3,159.4,123.7,159.4z M123.8,149H84.2c-0.6,0-1.2-0.5-1.2-1.2c0-0.6,0.5-1.2,1.2-1.2
			h39.5c0.6,0,1.2,0.5,1.2,1.2C124.9,148.5,124.4,149,123.8,149z"/>
	</g>
	<text transform="matrix(1 0 0 1 158.8757 185.0955)"><tspan x="0" y="0" class="st2 st3 st4">Billa</tspan><tspan x="234.5" y="0" class="st0 st3 st4">Bear</tspan></text>
</g>
</svg>
