<?xml version="1.0" encoding="utf-8"?>
<!-- Generator: Adobe Illustrator 17.0.0, SVG Export Plug-In . SVG Version: 6.00 Build 0)  -->
<!DOCTYPE svg PUBLIC "-//W3C//DTD SVG 1.1//EN" "http://www.w3.org/Graphics/SVG/1.1/DTD/svg11.dtd">
<svg version="1.1" id="Layer_1" xmlns="http://www.w3.org/2000/svg" xmlns:xlink="http://www.w3.org/1999/xlink" x="0px" y="0px"
	 width="470.805px" height="232px" viewBox="0 0 470.805 232" enable-background="new 0 0 470.805 232" xml:space="preserve">
<g>
	<g>
		<g>
			<g>
				<polygon fill-rule="evenodd" clip-rule="evenodd" fill="#368ACA" points="86.187,58.806 139.112,85.269 139.112,146.731 
					86.187,173.194 33.262,146.731 33.262,85.269 				"/>
			</g>
			<g>
				<path fill="#FFFFFF" d="M85.763,165.614L38.04,141.753v-52.38l47.723-23.861l47.711,23.861v52.38L85.763,165.614z M39.419,140.9
					l46.343,23.172l46.331-23.172V90.226L85.763,67.055L39.419,90.226V140.9z"/>
			</g>
		</g>
		<g>
			<polygon fill="#FFFFFF" points="120.917,116.605 119.407,116.075 117.754,116.574 117.754,117.267 119.335,116.771 
				120.917,117.276 			"/>
			<polygon fill="#FFFFFF" points="117.638,115.466 116.127,114.936 114.474,115.435 114.474,116.128 116.056,115.632 
				117.638,116.137 			"/>
			<polygon fill="#FFFFFF" points="114.24,114.431 112.574,113.851 110.737,114.399 110.737,115.119 112.5,114.572 114.24,115.127 
							"/>
			<polygon fill="#FFFFFF" points="110.192,112.981 108.26,112.303 106.137,112.994 106.137,113.757 108.182,113.071 
				110.192,113.721 			"/>
			<polygon fill="#FFFFFF" points="105.754,111.356 103.717,110.641 101.476,111.368 101.476,112.174 103.633,111.45 
				105.754,112.136 			"/>
			<polygon fill="#FFFFFF" points="100.649,109.696 98.518,108.948 96.175,109.708 96.175,110.551 98.431,109.795 100.649,110.511 
							"/>
			<polygon fill="#FFFFFF" points="94.86,107.589 92.59,106.792 90.094,107.603 90.094,108.501 92.498,107.695 94.86,108.459 			"/>
			<polygon fill="#FFFFFF" points="89.466,105.858 86.791,105.022 84.465,106.01 84.465,106.815 86.694,105.969 89.466,106.77 			
				"/>
			<polygon fill="#FFFFFF" points="85.187,107.576 82.874,106.854 80.863,107.708 80.863,108.403 82.79,107.672 85.187,108.365 			
				"/>
			<polygon fill="#FFFFFF" points="81.604,109.36 79.418,108.677 77.519,109.484 77.519,110.142 79.339,109.452 81.604,110.106 			
				"/>
			<polygon fill="#FFFFFF" points="78.255,110.954 76.219,110.318 74.447,111.07 74.447,111.683 76.144,111.039 78.255,111.649 			
				"/>
			<polygon fill="#FFFFFF" points="74.95,112.377 73.015,111.772 71.333,112.487 71.333,113.069 72.945,112.458 74.95,113.037 			
				"/>
			<polygon fill="#FFFFFF" points="71.692,114.001 69.883,113.435 68.309,114.103 68.309,114.648 69.817,114.076 71.692,114.618 			
				"/>
			<polygon fill="#FFFFFF" points="68.942,115.062 67.21,114.52 65.702,115.161 65.702,115.682 67.146,115.134 68.942,115.653 			
				"/>
			<polygon fill="#FFFFFF" points="66.057,116.464 64.421,115.952 62.999,116.557 62.999,117.048 64.362,116.532 66.057,117.021 			
				"/>
			<polygon fill="#FFFFFF" points="63.378,117.795 61.842,117.314 60.506,117.883 60.506,118.344 61.786,117.859 63.378,118.319 			
				"/>
			<polygon fill="#FFFFFF" points="60.739,118.981 59.4,118.561 58.276,119.04 58.276,119.406 59.348,119 60.739,119.402 			"/>
			<polygon fill="#FFFFFF" points="58.56,119.839 57.281,119.439 56.206,119.896 56.206,120.246 57.23,119.857 58.56,120.242 			"/>
			<polygon fill="#FFFFFF" points="56.377,120.789 55.162,120.408 54.14,120.843 54.14,121.176 55.114,120.806 56.377,121.172 			
				"/>
			<polygon fill="#FFFFFF" points="54.433,121.807 53.287,121.448 52.325,121.856 52.325,122.171 53.242,121.823 54.433,122.167 			
				"/>
			<polygon fill="#FFFFFF" points="52.619,122.704 51.533,122.364 50.62,122.75 50.62,123.048 51.489,122.719 52.619,123.045 			"/>
			<polygon fill="#FFFFFF" points="50.622,123.562 49.598,123.241 48.738,123.606 48.738,123.887 49.558,123.576 50.622,123.883 			
				"/>
			<path fill="#FFFFFF" d="M54.16,122.537c0,0-0.279-0.23-0.68-0.23c-0.401,0-0.71,0.282-0.71,0.282l-0.065,9.685L54.356,132
				L54.16,122.537z"/>
			<path fill="#FFFFFF" d="M84.509,108.893c0,0-0.524-0.432-1.275-0.432c-0.751,0-1.331,0.529-1.331,0.529l-0.072,18.447
				l3.005-0.499L84.509,108.893z"/>
			<path fill="#FFFFFF" d="M62.08,118.382c-0.499,0-0.884,0.352-0.884,0.352l-0.237,12.169l2.312-0.384l-0.343-11.85
				C62.928,118.669,62.58,118.382,62.08,118.382z"/>
			<path fill="#FFFFFF" d="M59.624,119.564c-0.468,0-0.83,0.33-0.83,0.33l-0.084,11.383l2.031-0.338l-0.322-11.106
				C60.419,119.833,60.093,119.564,59.624,119.564z"/>
			<path fill="#FFFFFF" d="M55.365,121.318c-0.426,0-0.754,0.3-0.754,0.3l-0.035,10.344l1.723-0.286l-0.213-10.113
				C56.087,121.563,55.791,121.318,55.365,121.318z"/>
			<path fill="#FFFFFF" d="M49.769,124.008c-0.358,0-0.635,0.253-0.635,0.253l-0.169,8.634l1.655-0.274l-0.243-8.406
				C50.378,124.214,50.127,124.008,49.769,124.008z"/>
			<path fill="#FFFFFF" d="M51.714,123.176c-0.38,0-0.673,0.268-0.673,0.268l-0.178,9.136l1.65-0.275l-0.154-8.911
				C52.359,123.395,52.094,123.176,51.714,123.176z"/>
			<path fill="#FFFFFF" d="M57.495,120.397c-0.447,0-0.793,0.314-0.793,0.314l-0.139,10.921l1.953-0.323l-0.261-10.655
				C58.255,120.654,57.943,120.397,57.495,120.397z"/>
			<path fill="#FFFFFF" d="M73.316,113.117c-0.628,0-1.112,0.443-1.112,0.443L71.9,129.086l2.92-0.486l-0.437-15.122
				C74.383,113.478,73.945,113.117,73.316,113.117z"/>
			<path fill="#FFFFFF" d="M76.534,111.734c-0.661,0-1.172,0.464-1.172,0.464l-0.208,16.348l2.966-0.494l-0.462-15.939
				C77.658,112.114,77.197,111.734,76.534,111.734z"/>
			<path fill="#FFFFFF" d="M79.758,110.196c-0.709,0-1.257,0.499-1.257,0.499l-0.072,17.306l3.024-0.502l-0.49-16.895
				C80.963,110.605,80.468,110.196,79.758,110.196z"/>
			<path fill="#FFFFFF" d="M64.675,117.089c-0.53,0-0.941,0.374-0.941,0.374l-0.253,13.021l2.464-0.41l-0.368-12.68
				C65.577,117.394,65.207,117.089,64.675,117.089z"/>
			<path fill="#FFFFFF" d="M67.478,115.725c-0.562,0-0.997,0.395-0.997,0.395l-0.271,13.91l2.591-0.431l-0.367-13.551
				C68.435,116.049,68.042,115.725,67.478,115.725z"/>
			<path fill="#FFFFFF" d="M70.164,114.693c-0.587,0-1.041,0.414-1.041,0.414l-0.283,14.487l2.731-0.454l-0.409-14.11
				C71.162,115.031,70.752,114.693,70.164,114.693z"/>
			<path fill="#FFFFFF" d="M108.067,113.767c-0.705,0-1.19,0.416-1.19,0.416l-0.186,15.138l3.039,0.414l-0.278-15.585
				C109.452,114.15,108.772,113.767,108.067,113.767z M112.392,115.226c-0.662,0-0.997,0.391-0.997,0.391l-0.293,14.306l2.849,0.389
				l-0.41-14.781C113.542,115.53,113.055,115.226,112.392,115.226z M115.952,116.263c-0.639,0-0.962,0.377-0.962,0.377
				l-0.282,13.774l2.747,0.375l-0.394-14.233C117.061,116.556,116.591,116.263,115.952,116.263z M120.339,117.695
				c0,0-0.469-0.293-1.108-0.293c-0.639,0-0.962,0.377-0.962,0.377l-0.282,13.082l2.748,0.374L120.339,117.695z M92.362,108.514
				c-0.827,0-1.398,0.488-1.398,0.488l-0.223,18.143l3.582,0.489l-0.333-18.672C93.99,108.963,93.191,108.514,92.362,108.514z
				 M86.845,106.828c-0.868,0-1.466,0.511-1.466,0.511l-0.273,19.553l1.704-0.284l0.083,0.012l2.262,0.308L88.553,107.3
				C88.553,107.3,87.715,106.828,86.845,106.828z M103.513,112.185c-0.743,0-1.255,0.438-1.255,0.438l-0.197,16.066l3.207,0.438
				l-0.295-16.538C104.972,112.589,104.256,112.185,103.513,112.185z M98.304,110.563c-0.778,0-1.313,0.458-1.313,0.458
				l-0.208,16.949l3.359,0.458l-0.311-17.444C99.832,110.984,99.082,110.563,98.304,110.563z"/>
			<polygon fill="#FFFFFF" points="92.873,96.013 105.159,96.102 115.62,105.535 			"/>
			<polygon fill="#FFFFFF" points="121.93,108.977 86.691,94.225 86.691,96.46 121.93,110.292 			"/>
			<polygon fill="#FFFFFF" points="121.115,106.453 121.115,107.196 106.123,93.302 88.111,93.317 88.111,92.582 86.691,92.582 
				86.691,94.492 88.481,95.243 105.445,95.365 119.659,108.18 121.93,109.029 121.93,106.798 			"/>
			<polygon fill="#FFFFFF" points="84.17,94.083 84.17,95.387 48.414,117.727 48.414,118.607 85.952,96.506 85.952,92.824 			"/>
			<polygon fill="#FFFFFF" points="48.414,119.67 48.414,122.112 86.362,103.701 86.362,98.127 			"/>
			<polygon fill="#FFFFFF" points="87.1,98.066 87.1,103.653 120.81,115.193 120.81,111.13 			"/>
			<path fill="#FFFFFF" d="M48.385,135.646l34.095-4.471l1.005-1.726h1.579l0.644-1.355l-36.864,6.121
				C48.843,134.215,48.385,134.517,48.385,135.646z"/>
			<polyline fill="#FFFFFF" points="123.827,135.13 122.041,132.712 86.817,127.909 85.647,130.372 84.016,130.372 83.558,131.159 
							"/>
		</g>
	</g>
	<g>
		<g>
			<path fill="#368ACA" d="M162.209,111.665v7.577c0,0.911,0.152,1.603,0.456,2.075c0.304,0.473,0.694,0.779,1.172,0.92
				s1.032,0.211,1.662,0.211v0.489h-11.895v-0.489c0.799,0,1.514-0.166,2.144-0.497c0.63-0.333,0.945-1.099,0.945-2.304v-17.817
				c0-1.192-0.251-2.033-0.752-2.523c-0.501-0.489-1.279-0.734-2.337-0.734v-0.489h13.178c1.822,0,3.312,0.346,4.472,1.038
				c1.158,0.692,1.979,1.55,2.462,2.573c0.484,1.024,0.727,2.081,0.727,3.173c0,1.281-0.267,2.36-0.802,3.231
				c-0.535,0.872-1.15,1.555-1.847,2.051c-0.81,0.585-1.711,1.02-2.7,1.307c-0.99,0.287-2.318,0.43-3.982,0.43
				C164.369,111.884,163.401,111.812,162.209,111.665z M162.209,99.619v10.697c0.562,0.124,1.107,0.186,1.637,0.186
				c1.237,0,2.242-0.301,3.012-0.902c0.769-0.602,1.307-1.348,1.61-2.237c0.304-0.889,0.456-1.777,0.456-2.666
				c0-0.934-0.168-1.791-0.506-2.573c-0.338-0.782-0.891-1.419-1.662-1.915c-0.771-0.494-1.77-0.742-2.995-0.742
				C163.311,99.467,162.794,99.517,162.209,99.619z"/>
			<path fill="#368ACA" d="M193.907,97.847l8.352,21.495c0.449,1.103,0.979,1.86,1.586,2.27c0.607,0.41,1.354,0.689,2.244,0.835
				v0.489h-11.777v-0.489c1.608-0.09,2.412-0.596,2.412-1.519c0-0.146-0.025-0.351-0.075-0.616
				c-0.051-0.264-0.118-0.545-0.203-0.843c-0.084-0.297-0.137-0.481-0.159-0.548l-2.076-5.281h-7.424l-1.772,5.079
				c-0.225,0.607-0.338,1.158-0.338,1.654c0,0.764,0.225,1.279,0.675,1.544c0.449,0.264,0.984,0.441,1.603,0.531v0.489h-7.458
				v-0.489c0.776-0.078,1.501-0.442,2.176-1.088c0.675-0.646,1.328-1.836,1.958-3.568l7.052-19.944H193.907z M187.36,111.986h6.192
				l-3.207-8.369L187.36,111.986z"/>
			<path fill="#368ACA" d="M222.619,111.294h-0.793v7.947c0,0.945,0.141,1.65,0.422,2.117c0.281,0.467,0.624,0.766,1.029,0.895
				s0.945,0.205,1.62,0.227v0.456h-11.676v-0.489c1.304,0,2.142-0.292,2.514-0.877c0.37-0.585,0.556-1.36,0.556-2.328v-17.413
				c0-1.192-0.242-2.033-0.725-2.523c-0.483-0.489-1.265-0.734-2.344-0.734v-0.489h12.891c1.698,0,3.189,0.265,4.471,0.793
				c1.283,0.528,2.262,1.276,2.937,2.244c0.674,0.968,1.012,2.076,1.012,3.323c0,1.013-0.213,1.913-0.641,2.7
				c-0.427,0.788-1.004,1.435-1.729,1.942c-0.725,0.506-1.532,0.894-2.421,1.163c1.158,0.732,2.283,2.024,3.375,3.881l2.969,5.045
				c0.506,0.866,0.973,1.539,1.401,2.017c0.427,0.478,0.804,0.792,1.131,0.944c0.325,0.152,0.68,0.256,1.063,0.313v0.489h-8.015
				c-0.777-1.406-1.373-2.525-1.788-3.357c-1.328-2.599-2.296-4.404-2.903-5.417c-0.607-1.012-1.234-1.743-1.881-2.194
				C224.444,111.519,223.619,111.294,222.619,111.294z M223.175,99.467h-1.349v10.443h1.131c1.934,0,3.391-0.463,4.37-1.392
				c0.978-0.927,1.467-2.263,1.467-4.007c0-1.079-0.211-1.993-0.633-2.741c-0.422-0.748-1.052-1.319-1.89-1.713
				C225.434,99.663,224.401,99.467,223.175,99.467z"/>
			<path fill="#368ACA" d="M247.972,98.082h17.362c0.798,0,1.462-0.102,1.991-0.304h0.489l0.136,5.839h-0.473
				c-0.247-1.711-0.666-2.799-1.256-3.266c-0.591-0.466-1.314-0.7-2.169-0.7h-4.64v19.59c0,0.653,0.073,1.206,0.22,1.662
				c0.146,0.456,0.444,0.827,0.894,1.113c0.451,0.287,1.108,0.43,1.974,0.43v0.489h-11.692v-0.489c1.293,0,2.131-0.292,2.514-0.877
				c0.382-0.585,0.574-1.36,0.574-2.328v-19.59h-4.64c-0.788,0-1.428,0.251-1.924,0.752c-0.495,0.501-0.979,1.571-1.451,3.214
				h-0.523l0.136-5.839h0.489C246.51,97.981,247.174,98.082,247.972,98.082z"/>
			<path fill="#368ACA" d="M283.82,109.219h11.744v-7.39c0-0.9-0.168-1.668-0.506-2.303c-0.338-0.636-1.136-0.954-2.396-0.954
				h-0.168v-0.489h11.676v0.489c-1.305,0-2.144,0.299-2.514,0.895c-0.371,0.596-0.557,1.383-0.557,2.362v17.413
				c0,0.54,0.05,1.032,0.152,1.476c0.102,0.444,0.365,0.843,0.793,1.199c0.427,0.354,1.079,0.531,1.957,0.531h0.169v0.489h-11.676
				v-0.489c1.315,0,2.156-0.292,2.521-0.877c0.366-0.585,0.548-1.36,0.548-2.328v-8.369H283.82v8.369
				c0,0.551,0.051,1.049,0.152,1.494c0.102,0.444,0.366,0.841,0.793,1.189c0.428,0.349,1.081,0.523,1.958,0.523h0.168v0.489h-11.676
				v-0.489c1.305,0,2.142-0.292,2.514-0.877c0.372-0.585,0.557-1.36,0.557-2.328v-17.413c0-0.911-0.172-1.682-0.515-2.312
				c-0.344-0.63-1.14-0.945-2.387-0.945h-0.169v-0.489h11.676v0.489c-1.283,0-2.115,0.295-2.498,0.886
				c-0.382,0.59-0.574,1.381-0.574,2.371V109.219z"/>
			<path fill="#368ACA" d="M329.271,98.082l0.202,5.569h-0.489c-0.225-0.934-0.474-1.704-0.751-2.312
				c-0.276-0.607-0.666-1.072-1.172-1.392c-0.507-0.321-1.199-0.481-2.076-0.481h-5.011v10.443h3.999
				c1.192,0,2.062-0.264,2.608-0.793c0.545-0.528,0.862-1.31,0.953-2.344h0.489v7.289h-0.489c-0.168-1.103-0.58-1.84-1.231-2.211
				c-0.653-0.37-1.43-0.556-2.329-0.556h-3.999v7.154c0,2.07,1.069,3.105,3.207,3.105h1.519c1.023,0,1.857-0.136,2.505-0.405
				c0.646-0.27,1.181-0.734,1.603-1.392c0.422-0.658,0.802-1.589,1.14-2.793h0.488l-0.37,5.973h-18.729v-0.489
				c1.305,0,2.149-0.295,2.531-0.886c0.382-0.59,0.574-1.363,0.574-2.319v-17.413c0-0.911-0.174-1.682-0.523-2.312
				c-0.349-0.63-1.153-0.945-2.413-0.945h-0.168v-0.489H329.271z"/>
			<path fill="#368ACA" d="M346.711,98.082l15.169,16.012v-11.372c0-1.496-0.304-2.516-0.911-3.062
				c-0.607-0.545-1.535-0.909-2.784-1.088v-0.489h8.571v0.489c-0.944,0.102-1.648,0.358-2.109,0.768
				c-0.462,0.41-0.759,0.891-0.895,1.442c-0.134,0.551-0.202,1.199-0.202,1.94v20.484h-0.624l-18.19-19.133v13.988
				c0,1.17,0.25,2.167,0.751,2.995c0.501,0.827,1.426,1.29,2.776,1.392v0.489h-8.876v-0.489c2.486-0.202,3.717-1.423,3.696-3.661
				v-16.451c-0.068-0.045-0.158-0.124-0.271-0.236c-0.1-0.102-0.27-0.265-0.506-0.489c-0.236-0.225-0.449-0.428-0.641-0.607
				c-1.507-1.451-2.829-2.262-3.965-2.43v-0.489H346.711z"/>
			<path fill="#368ACA" d="M374.613,110.433c0-1.687,0.289-3.301,0.868-4.842c0.58-1.541,1.432-2.894,2.557-4.059
				c1.125-1.163,2.489-2.07,4.091-2.716c1.603-0.646,3.418-0.97,5.442-0.97c2.047,0,3.872,0.329,5.475,0.986
				c1.604,0.659,2.964,1.573,4.084,2.742c1.118,1.17,1.965,2.523,2.539,4.058c0.574,1.536,0.861,3.17,0.861,4.902
				c0,1.721-0.279,3.341-0.836,4.86c-0.556,1.519-1.374,2.863-2.455,4.033c-1.079,1.17-2.439,2.092-4.075,2.766
				c-1.637,0.675-3.489,1.013-5.559,1.013c-2.228,0-4.171-0.379-5.83-1.138c-1.659-0.759-3.015-1.763-4.066-3.012
				c-1.052-1.249-1.831-2.627-2.337-4.134S374.613,111.918,374.613,110.433z M380.518,110.113c0,1.687,0.127,3.349,0.38,4.985
				c0.252,1.637,0.907,3.167,1.965,4.59c1.057,1.423,2.649,2.135,4.775,2.135c2.981,0,4.89-1.201,5.728-3.603
				c0.837-2.401,1.256-4.851,1.256-7.347c0-1.947-0.168-3.769-0.506-5.467s-1.027-3.153-2.067-4.361
				c-1.04-1.21-2.511-1.815-4.412-1.815c-2.137,0-3.733,0.689-4.784,2.067s-1.704,2.843-1.957,4.395
				C380.644,107.244,380.518,108.718,380.518,110.113z"/>
			<path fill="#368ACA" d="M417.498,98.082l15.169,16.012v-11.372c0-1.496-0.304-2.516-0.911-3.062
				c-0.607-0.545-1.535-0.909-2.784-1.088v-0.489h8.571v0.489c-0.944,0.102-1.648,0.358-2.108,0.768
				c-0.462,0.41-0.759,0.891-0.895,1.442c-0.134,0.551-0.202,1.199-0.202,1.94v20.484h-0.624l-18.19-19.133v13.988
				c0,1.17,0.25,2.167,0.751,2.995c0.501,0.827,1.426,1.29,2.776,1.392v0.489h-8.876v-0.489c2.486-0.202,3.717-1.423,3.696-3.661
				v-16.451c-0.068-0.045-0.158-0.124-0.271-0.236c-0.1-0.102-0.27-0.265-0.506-0.489c-0.236-0.225-0.449-0.428-0.641-0.607
				c-1.507-1.451-2.829-2.262-3.965-2.43v-0.489H417.498z"/>
		</g>
		<polygon fill="#368ACA" points="435.219,135.82 299.484,135.82 295.135,131.469 290.787,135.82 153.337,135.82 153.337,137.105 
			290.998,137.105 295.135,141.24 299.272,137.105 435.219,137.105 		"/>
	</g>
</g>
</svg>
