<?xml version="1.0" encoding="utf-8"?>
<!-- Generator: Adobe Illustrator 25.2.1, SVG Export Plug-In . SVG Version: 6.00 Build 0)  -->
<svg version="1.1" id="Layer_1" xmlns="http://www.w3.org/2000/svg" xmlns:xlink="http://www.w3.org/1999/xlink" x="0px" y="0px"
	 viewBox="0 0 300 300" style="enable-background:new 0 0 300 300;" xml:space="preserve">
<style type="text/css">
	.st0{fill:#146474;}
	.st1{fill:#FFFFFF;}
	.st2{fill:#14B8A6;}
	.st3{font-family:'NexaBold';}
	.st4{font-size:44.4123px;}
</style>
<g>
	<g>
		<g>
			<path class="st0" d="M131.7,150.9h61.8c0,0,1.4,14-8.7,15.6c-57.4,0-57.4,0-57.4,0S132.7,164,131.7,150.9z"/>
			<path class="st2" d="M106.4,152.5v0.4c0,0,0.3,13.1,9.6,14.4c2.8,0.4,5.1,0,7-1.1C117.7,162.9,111.3,158.2,106.4,152.5z"/>
		</g>
		<path class="st2" d="M182.2,75.9l-11.4,10.2l-10.1-9.8l-9.8,10.1l-8.3-9.7l-8.9,9.6l-8.6-9.8l-8.9,9.8l-9.7-9v22
			c3.5-0.5,6.7-1.8,6.7-1.8s-1.6-2.8,0.9-5c2.5-2.2,6.7-0.8,9,2.8c2.3,3.6,5.2,3.2,5.2,3.2s-2.7-0.6-3.7-2.1
			c6-1.3,12.7,1.5,16.9,4.1c4.2,2.6,8.6,4.3,14.4,6c5.8,1.6,2.8,5.9,2.8,5.9s0,0-0.9,2.2c-1.4,3.6-2.5,4.3-16.8,7.1
			c-9.2,1.7-16.5,5.8-22.2,10.5c1.4,4,4.2,11.2,7.7,18c0.4,0.7,0.7,1.5,0.8,2.3c0.5,2.5,0.8,5.2,0.3,7.9c2.1-4.4,0.6-11.8,0.6-11.8
			h53.9V75.9z M142.9,99.6c-0.4,0-0.8-0.3-0.8-0.8c0-0.4,0.3-0.8,0.8-0.8h31.8c0.4,0,0.8,0.3,0.8,0.8c0,0.4-0.3,0.8-0.8,0.8H142.9z
			 M175.5,107c0,0.4-0.3,0.8-0.8,0.8h-12.5c-0.4,0-0.8-0.3-0.8-0.8s0.3-0.8,0.8-0.8h12.5C175.1,106.2,175.5,106.6,175.5,107z
			 M159.6,114.5h15.1c0.4,0,0.8,0.3,0.8,0.8c0,0.4-0.3,0.8-0.8,0.8h-15.1c-0.4,0-0.8-0.3-0.8-0.8
			C158.8,114.8,159.2,114.5,159.6,114.5z M175.2,137.7h-46.8c-0.4,0-0.8-0.3-0.8-0.8s0.3-0.8,0.8-0.8h46.8c0.4,0,0.8,0.3,0.8,0.8
			S175.6,137.7,175.2,137.7z M175.2,130.4h-44.4c-0.4,0-0.8-0.3-0.8-0.8c0-0.4,0.3-0.8,0.8-0.8h44.4c0.4,0,0.8,0.3,0.8,0.8
			C176,130.1,175.6,130.4,175.2,130.4z M175.2,123.4h-26.6c-0.4,0-0.8-0.3-0.8-0.8c0-0.4,0.3-0.8,0.8-0.8h26.6
			c0.4,0,0.8,0.3,0.8,0.8C176,123.1,175.7,123.4,175.2,123.4z"/>
	</g>
	<text transform="matrix(1 0 0 1 54.6699 210.4424)"><tspan x="0" y="0" class="st2 st3 st4">Billa</tspan><tspan x="88" y="0" class="st0 st3 st4">Bear</tspan></text>
</g>
</svg>
