<?xml version="1.0" standalone="no"?>
<!DOCTYPE svg PUBLIC "-//W3C//DTD SVG 20010904//EN"
 "http://www.w3.org/TR/2001/REC-SVG-20010904/DTD/svg10.dtd">
<svg version="1.0" xmlns="http://www.w3.org/2000/svg"
 width="1251.000000pt" height="1251.000000pt" viewBox="0 0 1251.000000 1251.000000"
 preserveAspectRatio="xMidYMid meet">
<metadata>
Created by potrace 1.14, written by Peter Selinger 2001-2017
</metadata>
<g transform="translate(0.000000,1251.000000) scale(0.100000,-0.100000)"
fill="#000000" stroke="none">
<path d="M9440 10833 c-73 -65 -131 -117 -169 -152 -14 -13 -57 -51 -95 -85
-38 -33 -74 -66 -80 -71 -6 -6 -83 -76 -171 -154 -88 -79 -180 -162 -205 -185
-25 -23 -88 -79 -140 -126 -52 -47 -116 -105 -142 -129 -87 -80 -63 -89 -249
92 -92 89 -300 293 -464 452 -164 160 -317 310 -342 333 -44 44 -56 45 -83 11
-3 -4 -129 -134 -280 -289 -151 -156 -317 -326 -369 -379 -226 -232 -305 -311
-311 -311 -4 0 -24 20 -44 45 -20 24 -42 50 -49 57 -7 7 -37 42 -67 78 -30 36
-57 67 -60 70 -6 6 -103 119 -141 164 -13 16 -29 34 -34 40 -6 6 -107 122
-223 258 -117 136 -217 250 -221 252 -5 3 -50 -40 -102 -96 -52 -56 -109 -117
-128 -137 -65 -69 -219 -236 -246 -266 -15 -16 -55 -59 -89 -95 -55 -59 -254
-273 -314 -338 l-24 -25 -35 39 c-19 21 -58 66 -86 98 -29 33 -106 121 -171
195 -66 75 -144 165 -175 200 -31 35 -60 69 -66 75 -5 6 -44 49 -85 96 -41 47
-79 90 -85 96 -5 6 -30 34 -55 63 -24 29 -61 71 -80 92 l-36 40 -30 -33 c-16
-19 -63 -72 -104 -118 -41 -47 -78 -87 -81 -90 -3 -3 -30 -32 -60 -65 -67 -75
-220 -244 -234 -259 -6 -6 -75 -83 -155 -171 -79 -88 -162 -179 -185 -203 -22
-24 -41 -47 -43 -52 -2 -4 -18 7 -36 24 -36 34 -244 228 -291 272 -29 26 -217
201 -295 274 -20 19 -84 78 -140 130 -57 52 -118 109 -135 125 -17 17 -45 42
-61 57 l-29 27 0 -1109 c0 -610 3 -1111 5 -1114 3 -3 35 1 71 9 36 7 79 16 95
18 93 16 484 133 501 150 2 3 -3 22 -11 42 -21 51 -27 79 -31 153 -9 158 85
304 245 380 66 31 86 36 165 38 105 4 178 -12 280 -61 134 -64 257 -175 355
-320 136 -202 321 -326 484 -324 l51 0 -75 22 c-99 30 -207 88 -259 139 -22
23 -40 42 -38 44 4 4 53 13 117 22 110 14 395 7 505 -13 95 -18 186 -38 231
-51 28 -8 60 -16 70 -19 27 -5 212 -71 297 -105 145 -57 353 -163 529 -267
136 -81 173 -101 306 -167 122 -61 328 -153 402 -181 151 -56 401 -141 530
-179 323 -97 376 -120 454 -200 107 -110 114 -242 21 -425 -18 -36 -52 -113
-75 -171 -115 -290 -203 -385 -443 -479 -144 -56 -568 -170 -762 -205 -16 -3
-86 -17 -155 -31 -69 -15 -138 -29 -155 -32 -16 -2 -61 -11 -100 -20 -38 -8
-83 -17 -100 -20 -16 -3 -98 -20 -182 -38 -580 -128 -1127 -362 -1643 -704
-63 -41 -122 -81 -130 -88 -8 -6 -62 -46 -119 -89 -58 -42 -116 -87 -130 -100
-14 -13 -29 -24 -32 -24 -21 0 -16 -44 15 -124 19 -50 55 -147 81 -216 175
-466 386 -952 596 -1372 138 -277 157 -342 195 -658 13 -111 7 -345 -12 -475
-12 -82 56 108 80 225 42 205 42 551 1 817 -8 51 -15 101 -15 110 0 17 129 18
2725 16 l2725 -2 0 3665 c0 2015 -1 3664 -3 3664 -1 0 -32 -26 -67 -57z m-653
-2192 c31 -16 45 -47 38 -82 -15 -66 113 -61 -1680 -61 -894 1 -1635 4 -1645
7 -11 4 -26 18 -34 33 -26 51 -1 99 55 111 17 3 753 6 1637 5 1218 -1 1613 -4
1629 -13z m17 -847 c30 -31 33 -55 9 -94 -11 -20 -26 -29 -52 -33 -20 -3 -319
-5 -665 -5 l-630 0 -28 28 c-15 16 -28 39 -28 52 0 25 26 63 50 71 8 3 308 6
666 6 l651 1 27 -26z m2 -837 c31 -37 31 -72 -2 -102 l-27 -25 -789 0 -789 0
-24 25 c-25 24 -29 43 -19 81 13 50 -5 49 840 49 l786 0 24 -28z m48 -738 c43
-34 33 -100 -19 -126 -13 -6 -512 -9 -1386 -9 -1462 1 -1384 -1 -1410 48 -13
24 5 84 29 98 11 6 514 10 1388 10 l1371 0 27 -21z m-53 -688 c65 -2 99 -82
54 -127 -17 -17 -36 -24 -62 -24 -21 -1 -1046 -1 -2278 -1 l-2240 -1 -22 27
c-46 53 -14 122 60 127 33 2 4377 1 4488 -1z m0 -740 c64 -2 97 -79 55 -127
l-22 -26 -2397 -1 -2398 0 -24 23 c-53 50 -19 125 60 132 32 2 4632 1 4726 -1z"/>
<path d="M4499 3302 l-106 -3 7 -39 c8 -43 5 -550 -3 -590 -3 -14 -8 -47 -11
-75 -8 -66 -22 -149 -36 -210 -6 -27 -13 -57 -15 -66 -10 -51 -71 -211 -105
-280 -66 -132 -125 -210 -212 -280 l-48 -37 2923 2 c1607 1 2934 5 2949 9 409
108 656 395 767 892 12 53 15 66 26 134 13 81 15 106 20 324 5 202 4 217 -13
218 -74 2 -6061 3 -6143 1z"/>
<path d="M1846 3078 c4 -78 12 -162 21 -207 3 -19 7 -42 8 -50 17 -163 113
-460 201 -626 157 -295 403 -492 683 -545 246 -46 499 -22 690 66 l75 34 -195
129 c-391 259 -674 474 -954 725 -166 149 -500 492 -513 527 -2 5 -7 9 -12 9
-4 0 -6 -28 -4 -62z"/>
</g>
</svg>
